<?xml version="1.0" encoding="utf-8"?>
<!-- Svg Vector Icons : http://www.onlinewebfonts.com/icon -->
<!DOCTYPE svg PUBLIC "-//W3C//DTD SVG 1.1//EN" "http://www.w3.org/Graphics/SVG/1.1/DTD/svg11.dtd">
<svg fill="#a549ea" version="1.1" xmlns="http://www.w3.org/2000/svg" xmlns:xlink="http://www.w3.org/1999/xlink" x="0px" y="0px" viewBox="0 0 1000 1000" enable-background="new 0 0 1000 1000" xml:space="preserve">
<metadata> Svg Vector Icons : http://www.onlinewebfonts.com/icon </metadata>
<g><path d="M983.4,835.9c-31.7,11-94.4,33.8-166.5-88.2c-72.1-121.8-167.4-93.5-167.4-93.5c-5.3,0.9-9.9,2.7-14.6,4.3c-107.6-153.2-410-486.8-436.7-513.5C160,106.9,95.8,71,42.1,127.3c-50.5,52.9-24.6,122,13.6,160.2C82.6,314.4,418,618.4,571.1,725.6c-3.2,9.3-4.7,16.9-4.7,20.7c0,223.8,228.9,212,276.3,203.3C927.1,934.4,1015.1,825,983.4,835.9L983.4,835.9z"/><path d="M356,694L342,740.1l29.8,29.8l-234,101.7l-46-44.1l105.7-222.7l-1.1,43.3l61.3-0.9l52.4-51.9c-32.5-27.6-65-55.6-95.9-82.7L162.9,564c0,0-141.9,326.6-151.6,353c-7.7,20.9,18.8,47.3,37.1,38.4c29.5-14.5,352.4-154.7,352.4-154.7l71.7-72c-26-20.2-54.3-43-83.6-67.2L356,694L356,694z"/><path d="M757.1,153.1l77.3,75.9L574.7,481.1c23.2,28.2,45.1,55.4,64.5,80.5l261.6-262.4c30.8-30.8,32.5-75.3-0.5-108.2L777.2,68.8c-33.1-33-84.9-34.7-115.7-3.9L423.3,303.5c27.4,31.3,55.8,64.2,83.7,97.1L757.1,153.1L757.1,153.1z"/></g>
</svg>