<?xml version="1.0" encoding="utf-8"?><!--Generator: Adobe Illustrator 19.2.1, SVG Export Plug-In . SVG Version: 6.00 Build 0)--><svg fill="#a549ea" version="1.1" id="Layer_1" xmlns="http://www.w3.org/2000/svg" xmlns:xlink="http://www.w3.org/1999/xlink" x="0" y="0" viewBox="0 0 70 73.5" style="enable-background:new 0 0 70 73.5;" xml:space="preserve"><g><path class="st0" d="M17.6 47.8c-.6-.5-1.6-.5-2.1.2-.2.2-.4.5-.6.7-.5.6-.4 1.6.2 2 .3.2.6.3.9.3.4 0 .9-.2 1.1-.6.2-.2.3-.4.5-.6.7-.6.6-1.5 0-2"/><path class="st0" d="M44.5 19.2c.3.2.6.4 1 .4s.8-.2 1.1-.5c.2-.2.4-.5.5-.7.5-.7.3-1.6-.3-2-.7-.5-1.6-.3-2 .3-.1.2-.2.3-.4.5-.6.5-.5 1.5.1 2"/><path class="st0" d="M68.5 63h-2.2c-.2-5.4-1.9-10.6-4.7-15.1-2.8-4.4-6.6-8.1-11.1-10.7.2-.5.4-1 .5-1.7h3c2.7 0 5-2.2 5-5V26c0-2.7-2.2-5-5-5h-.5c.1-2 .1-3.9-.4-5.4-1.3-4.2-3.7-7.8-6.9-10.2C43 3 39.1 1.7 35 1.7S27 3 23.8 5.3c-3.3 2.5-5.7 6-6.9 10.2-.5 1.5-.5 3.4-.4 5.4H16c-2.7 0-5 2.2-5 5v4.6c0 2.7 2.2 5 5 5h3c.2.6.3 1.2.5 1.7-4.5 2.6-8.3 6.2-11.1 10.7-2.9 4.5-4.5 9.7-4.7 15.1H1.5c-.8 0-1.5.6-1.5 1.4 0 .8.7 1.5 1.5 1.5h13.2l1.4 4.8c.2.6.8 1 1.4 1h35c.6 0 1.2-.4 1.4-1l1.4-4.8h13.2c.8 0 1.5-.7 1.5-1.5s-.7-1.4-1.5-1.4M54.1 23.9c1.1 0 2 .9 2 2v4.6c0 1.1-.9 2-2 2h-2.3c.1-.6.2-1.3.4-2 .1-.5.2-1.1.3-1.8.3-1.4.6-3.2.8-4.9l.8.1zm-34.4-7.5c2.2-7.3 8-11.8 15.3-11.8 7.3 0 13.2 4.5 15.3 11.8.4 1.5.4 3.6.2 5.7v.3c-.2 2.1-.6 4.2-1 5.8-.1.7-.3 1.3-.3 1.8-.2 1.2-.4 2.3-.6 3.2-2.2 2-5.8 3.3-9.5 3.6-.1-.7-.7-1.2-1.4-1.2H35c-.8 0-1.5.7-1.5 1.5v2.7l.1.1h1c.8.1 1.7.2 2.5.2 3.3 0 6.7-.7 9.4-2-.7.9-1.6 1.4-2.9 2.3-.5.3-1.2.7-1.8 1.2-2.4 1.4-4.7 2-7.1 2-2.4 0-4.7-.7-7.1-2-.7-.5-1.3-.9-1.8-1.2-2.6-1.6-3.6-2.3-4.5-6.2 0-.1 0-.2-.1-.3-.2-1-.4-2.1-.6-3.5-.1-.5-.2-1.1-.3-1.8-.2-1.3-.6-2.9-.8-4.6 2.7-.4 8.4-1.3 12.3-3.2l1 2.3c.1.2.2.4.2.6.3.8.6 1.6 1.5 1.9.2.1.4.1.6.1.5 0 1-.2 1.8-.4.2-.1.4-.1.7-.2 1-.3 3-1.3 5-2.6.7-.4.9-1.4.4-2-.4-.7-1.4-.9-2-.4-1.8 1.2-3.6 2-4.3 2.3-.3.1-.5.2-.7.2-.1 0-.2.1-.3.1-.1-.2-.2-.4-.3-.7L34 17.9c-.2-.4-.5-.7-.9-.8-.4-.1-.9-.1-1.2.2-3.2 2.1-9.6 3.2-12.5 3.6-.1-1.7-.1-3.3.3-4.5m-3.8 16.2c-1.1 0-2-.9-2-2V26c0-1.1.9-2 2-2h.8c.2 1.8.6 3.5.8 4.9.1.7.2 1.3.3 1.8.1.7.2 1.4.4 2l-2.3-.1zm35.5 36.2h-3.3l.6-2.3c.2-.8-.3-1.6-1-1.8-.8-.2-1.6.3-1.8 1l-.8 3H18.6L17.1 64 15 57.2h3.2l.8 3c.2.7.8 1.1 1.4 1.1.1 0 .3 0 .4-.1.8-.2 1.2-1 1-1.8l-.6-2.3h33.6L52.9 64l-1.5 4.8zm4.8-5.8l2.1-6.9c.1-.4 0-.9-.2-1.3-.3-.4-.7-.6-1.2-.6H13.1c-.5 0-.9.2-1.2.6-.3.4-.4.8-.2 1.3l2.1 6.9H6.6c.5-9.7 5.8-18.4 14.3-23.2.6.8 1.4 1.4 2.3 2-1.4.7-2.8 1.6-4 2.6-.6.5-.7 1.4-.2 2 .3.4.7.6 1.1.6.3 0 .6-.1.9-.3 1.1-.9 2.4-1.7 3.7-2.4l1.4-.7c.1.1.2.1.3.2l.1.1c2.8 1.6 5.7 2.5 8.6 2.5 2.9 0 5.8-.8 8.6-2.5l.1-.1c.7-.5 1.3-.8 1.8-1.2 1.6-1 2.7-1.8 3.6-2.9 8.5 4.8 13.8 13.5 14.3 23.2h-7.3z"/><path class="st0" d="M23.1 63.8c-.2-.8-1-1.2-1.8-1-.8.2-1.2 1-1 1.8l.2.6c.2.7.8 1.1 1.4 1.1.1 0 .3 0 .4-.1.8-.2 1.2-1 1-1.8l-.2-.6z"/><path class="st0" d="M49 59.7c-.8-.2-1.6.3-1.8 1l-.2.6c-.2.8.3 1.6 1 1.8.1 0 .3.1.4.1.6 0 1.2-.4 1.4-1.1l.2-.6c.3-.8-.2-1.6-1-1.8"/></g></svg>